<?xml version="1.0" encoding="UTF-8" standalone="no"?>
<!-- Created with Inkscape (http://www.inkscape.org/) -->

<svg
   width="211.89999mm"
   height="56.335697mm"
   viewBox="0 0 211.89999 56.335697"
   version="1.1"
   id="svg86983"
   sodipodi:docname="logofixed.svg"
   inkscape:version="1.1.2 (0a00cf5339, 2022-02-04)"
   inkscape:export-filename="/home/user/Pictures/voat/logofixed.png"
   inkscape:export-xdpi="96"
   inkscape:export-ydpi="96"
   xmlns:inkscape="http://www.inkscape.org/namespaces/inkscape"
   xmlns:sodipodi="http://sodipodi.sourceforge.net/DTD/sodipodi-0.dtd"
   xmlns:xlink="http://www.w3.org/1999/xlink"
   xmlns="http://www.w3.org/2000/svg"
   xmlns:svg="http://www.w3.org/2000/svg">
  <sodipodi:namedview
     id="namedview86985"
     pagecolor="#ffffff"
     bordercolor="#666666"
     borderopacity="1.0"
     inkscape:pageshadow="2"
     inkscape:pageopacity="0.0"
     inkscape:pagecheckerboard="0"
     inkscape:document-units="mm"
     showgrid="false"
     inkscape:zoom="0.71815423"
     inkscape:cx="174.05732"
     inkscape:cy="6.9622927"
     inkscape:window-width="1920"
     inkscape:window-height="1012"
     inkscape:window-x="0"
     inkscape:window-y="0"
     inkscape:window-maximized="1"
     inkscape:current-layer="layer1"
     fit-margin-top="0"
     fit-margin-left="0"
     fit-margin-right="0"
     fit-margin-bottom="0"
     width="211.9mm" />
  <defs
     id="defs86980">
    <linearGradient
       inkscape:collect="always"
       xlink:href="#linearGradient7215"
       id="linearGradient7221"
       x1="-793.27277"
       y1="-209.88112"
       x2="-765.27893"
       y2="-181.48827"
       gradientUnits="userSpaceOnUse"
       gradientTransform="matrix(2.119357,0,0,2.1183562,1834.957,478.30633)" />
    <linearGradient
       inkscape:collect="always"
       id="linearGradient7215">
      <stop
         style="stop-color:#4aabe7;stop-opacity:1"
         offset="0"
         id="stop7217" />
      <stop
         style="stop-color:#50b8f4;stop-opacity:1"
         offset="1"
         id="stop7219" />
    </linearGradient>
    <linearGradient
       inkscape:collect="always"
       xlink:href="#linearGradient7340"
       id="linearGradient7346"
       x1="-821.42035"
       y1="-209.61102"
       x2="-793.6333"
       y2="-182.11102"
       gradientUnits="userSpaceOnUse"
       gradientTransform="matrix(2.0712881,0,0,2.0712881,1800.838,471.07564)" />
    <linearGradient
       id="linearGradient7340"
       inkscape:collect="always">
      <stop
         id="stop7405"
         offset="0"
         style="stop-color:#c9c9ca;stop-opacity:1" />
      <stop
         id="stop7407"
         offset="1"
         style="stop-color:#c5c5c5;stop-opacity:1" />
    </linearGradient>
    <linearGradient
       inkscape:collect="always"
       xlink:href="#linearGradient7151"
       id="linearGradient7157"
       x1="-849.56396"
       y1="-209.69234"
       x2="-821.74878"
       y2="-181.29947"
       gradientUnits="userSpaceOnUse"
       gradientTransform="matrix(2.1184505,0,0,2.1184505,1842.5737,480.97031)" />
    <linearGradient
       inkscape:collect="always"
       id="linearGradient7151">
      <stop
         style="stop-color:#927cff;stop-opacity:1"
         offset="0"
         id="stop7153" />
      <stop
         style="stop-color:#8870ff;stop-opacity:1"
         offset="1"
         id="stop7155" />
    </linearGradient>
    <linearGradient
       inkscape:collect="always"
       xlink:href="#linearGradient7340"
       id="linearGradient7431"
       x1="-766.4317"
       y1="-209.7417"
       x2="-739.17792"
       y2="-181.70996"
       gradientUnits="userSpaceOnUse"
       gradientTransform="matrix(2.0383635,0,0,2.0383635,1762.3929,464.61133)" />
  </defs>
  <g
     inkscape:label="Layer 1"
     inkscape:groupmode="layer"
     id="layer1"
     transform="translate(-43.533809,-37.225723)">
    <path
       style="fill:#77cdff;fill-opacity:1;fill-rule:evenodd;stroke:url(#linearGradient7221);stroke-width:3.17829;stroke-linecap:butt;stroke-linejoin:miter;stroke-miterlimit:4;stroke-dasharray:none;stroke-opacity:1"
       d="m 181.40669,41.25257 -24.50084,41.678104 c -1.72498,2.986353 -1.43156,6.668459 1.58543,8.409493 l 1.66027,0.628495 h 45.6274 l 2.64284,-0.984993 c 2.71136,-1.564681 2.94626,-5.232297 1.2516,-8.166136 L 185.37581,41.136505 c -2.01875,-2.995758 -1.96476,-3.039502 -3.96912,0.116086 z"
       id="path7064-9"
       inkscape:connector-curvature="0"
       sodipodi:nodetypes="ccccccccc"
       inkscape:export-filename="/home/user/Pictures/voat/logofixed.png"
       inkscape:export-xdpi="96"
       inkscape:export-ydpi="96" />
    <path
       inkscape:connector-curvature="0"
       style="fill:#f2f2f2;fill-opacity:1;stroke:url(#linearGradient7346);stroke-width:3.10693;stroke-miterlimit:4;stroke-dasharray:none;stroke-opacity:1"
       d="m 128.12296,38.779205 a 26.613664,26.613664 0 0 0 -26.61118,26.611184 26.613664,26.613664 0 0 0 26.61118,26.615244 26.613664,26.613664 0 0 0 26.61526,-26.615244 26.613664,26.613664 0 0 0 -26.61526,-26.611184 z m 0.74035,13.63328 a 13.440971,13.440971 0 0 1 13.44313,13.439097 13.440971,13.440971 0 0 1 -13.44313,13.443136 13.440971,13.440971 0 0 1 -13.4391,-13.443136 13.440971,13.440971 0 0 1 13.4391,-13.439097 z"
       id="path7081"
       inkscape:export-filename="/home/user/Pictures/voat/logofixed.png"
       inkscape:export-xdpi="96"
       inkscape:export-ydpi="96" />
    <path
       style="fill:#a696ff;fill-opacity:1;fill-rule:evenodd;stroke:url(#linearGradient7157);stroke-width:3.17768;stroke-linecap:butt;stroke-linejoin:miter;stroke-miterlimit:4;stroke-dasharray:none;stroke-opacity:1"
       d="M 70.669917,89.535919 46.179549,47.855958 C 44.4553,44.869472 44.7486,41.187204 47.764299,39.446092 l 1.659573,-0.628524 h 45.607865 l 2.641706,0.985037 c 2.710227,1.564752 2.945007,5.23253 1.251073,8.1665 L 74.637329,89.65199 c -2.017887,2.99589 -1.96391,3.039636 -3.967412,-0.116093 z"
       id="path7064-9-2"
       inkscape:connector-curvature="0"
       sodipodi:nodetypes="ccccccccc"
       inkscape:export-filename="/home/user/Pictures/voat/logofixed.png"
       inkscape:export-xdpi="96"
       inkscape:export-ydpi="96" />
    <path
       style="display:inline;fill:#f2f2f2;fill-opacity:1;fill-rule:evenodd;stroke:url(#linearGradient7431);stroke-width:3.05755;stroke-linecap:butt;stroke-linejoin:miter;stroke-miterlimit:4;stroke-dasharray:none;stroke-opacity:1"
       d="m 207.13194,38.754512 h 42.13224 c 3.63538,0 4.63412,0.941295 4.63412,4.718261 v 3.912924 c 0,3.535969 -0.84331,4.624007 -4.54313,4.624007 h -10.04621 c -3.50424,0 -4.45695,0.926987 -4.45695,3.629551 v 31.676658 c 0,3.90102 -0.90736,4.716732 -4.62454,4.716732 h -3.65829 c -4.0636,0 -4.97236,-0.721988 -4.97236,-4.862455 V 56.048742 c 0,-2.994458 -0.79233,-4.039038 -3.94548,-4.039038 h -10.33741 c -3.87275,0 -4.8921,-0.803951 -4.8921,-4.897005 v -3.821932 c 0,-3.564975 0.99984,-4.536255 4.71011,-4.536255 z"
       id="path7091"
       inkscape:connector-curvature="0"
       sodipodi:nodetypes="ccccccccccccccccc"
       inkscape:export-filename="/home/user/Pictures/voat/logofixed.png"
       inkscape:export-xdpi="96"
       inkscape:export-ydpi="96" />
  </g>
</svg>