<?xml version="1.0" encoding="UTF-8" standalone="no"?>
<svg
   height="100%"
   style="fill-rule:evenodd;clip-rule:evenodd;stroke-linejoin:round;stroke-miterlimit:2;"
   version="1.1"
   viewBox="0 0 512 512"
   width="100%"
   xml:space="preserve"
   id="svg2234"
   sodipodi:docname="reddit.svg"
   inkscape:version="1.1.2 (0a00cf5339, 2022-02-04)"
   xmlns:inkscape="http://www.inkscape.org/namespaces/inkscape"
   xmlns:sodipodi="http://sodipodi.sourceforge.net/DTD/sodipodi-0.dtd"
   xmlns="http://www.w3.org/2000/svg"
   xmlns:svg="http://www.w3.org/2000/svg"><defs
     id="defs2238" /><sodipodi:namedview
     id="namedview2236"
     pagecolor="#ffffff"
     bordercolor="#666666"
     borderopacity="1.0"
     inkscape:pageshadow="2"
     inkscape:pageopacity="0.0"
     inkscape:pagecheckerboard="0"
     showgrid="false"
     inkscape:zoom="1.6210938"
     inkscape:cx="260.93494"
     inkscape:cy="311.51807"
     inkscape:window-width="1920"
     inkscape:window-height="1012"
     inkscape:window-x="0"
     inkscape:window-y="0"
     inkscape:window-maximized="1"
     inkscape:current-layer="svg2234" /><path
     d="M449.446,0c34.525,0 62.554,28.03 62.554,62.554l0,386.892c0,34.524 -28.03,62.554 -62.554,62.554l-386.892,0c-34.524,0 -62.554,-28.03 -62.554,-62.554l0,-386.892c0,-34.524 28.029,-62.554 62.554,-62.554l386.892,0Zm-3.446,265.638c0,-22.964 -18.616,-41.58 -41.58,-41.58c-11.211,0 -21.361,4.457 -28.841,11.666c-28.424,-20.508 -67.586,-33.757 -111.204,-35.278l18.941,-89.121l61.884,13.157c0.756,15.734 13.642,28.29 29.56,28.29c16.407,0 29.706,-13.299 29.706,-29.701c0,-16.403 -13.299,-29.702 -29.706,-29.702c-11.666,0 -21.657,6.792 -26.515,16.578l-69.105,-14.69c-1.922,-0.418 -3.939,-0.042 -5.585,1.036c-1.658,1.073 -2.811,2.761 -3.224,4.686l-21.152,99.438c-44.258,1.228 -84.046,14.494 -112.837,35.232c-7.468,-7.164 -17.589,-11.591 -28.757,-11.591c-22.965,0 -41.585,18.616 -41.585,41.58c0,16.896 10.095,31.41 24.568,37.918c-0.639,4.135 -0.99,8.328 -0.99,12.576c0,63.977 74.469,115.836 166.33,115.836c91.861,0 166.334,-51.859 166.334,-115.836c0,-4.218 -0.347,-8.387 -0.977,-12.493c14.564,-6.47 24.735,-21.034 24.735,-38.001Zm-119.474,108.193c-20.27,20.241 -59.115,21.816 -70.534,21.816c-11.428,0 -50.277,-1.575 -70.522,-21.82c-3.007,-3.008 -3.007,-7.882 0,-10.889c3.003,-2.999 7.882,-3.003 10.885,0c12.777,12.781 40.11,17.317 59.637,17.317c19.522,0 46.86,-4.536 59.657,-17.321c3.016,-2.999 7.886,-2.995 10.885,0.008c3.008,3.011 3.003,7.882 -0.008,10.889Zm-5.23,-48.781c-16.373,0 -29.701,-13.324 -29.701,-29.698c0,-16.381 13.328,-29.714 29.701,-29.714c16.378,0 29.706,13.333 29.706,29.714c0,16.374 -13.328,29.698 -29.706,29.698Zm-160.386,-29.702c0,-16.381 13.328,-29.71 29.714,-29.71c16.369,0 29.689,13.329 29.689,29.71c0,16.373 -13.32,29.693 -29.689,29.693c-16.386,0 -29.714,-13.32 -29.714,-29.693Z"
     id="path2232"
     style="fill:#d1d1d1;fill-opacity:1" /></svg>
