<?xml version="1.0" encoding="UTF-8" standalone="no"?>
<svg
   height="100%"
   style="fill-rule:evenodd;clip-rule:evenodd;stroke-linejoin:round;stroke-miterlimit:2;"
   version="1.1"
   viewBox="0 0 512 512"
   width="100%"
   xml:space="preserve"
   id="svg2641"
   sodipodi:docname="youtube.svg"
   inkscape:version="1.1.2 (0a00cf5339, 2022-02-04)"
   xmlns:inkscape="http://www.inkscape.org/namespaces/inkscape"
   xmlns:sodipodi="http://sodipodi.sourceforge.net/DTD/sodipodi-0.dtd"
   xmlns="http://www.w3.org/2000/svg"
   xmlns:svg="http://www.w3.org/2000/svg"><defs
     id="defs2645" /><sodipodi:namedview
     id="namedview2643"
     pagecolor="#ffffff"
     bordercolor="#666666"
     borderopacity="1.0"
     inkscape:pageshadow="2"
     inkscape:pageopacity="0.0"
     inkscape:pagecheckerboard="0"
     showgrid="false"
     inkscape:zoom="0.64110286"
     inkscape:cx="241.77088"
     inkscape:cy="346.27829"
     inkscape:window-width="1920"
     inkscape:window-height="1012"
     inkscape:window-x="0"
     inkscape:window-y="0"
     inkscape:window-maximized="1"
     inkscape:current-layer="svg2641" /><path
     d="M449.446,0c34.525,0 62.554,28.03 62.554,62.554l0,386.892c0,34.524 -28.03,62.554 -62.554,62.554l-386.892,0c-34.524,0 -62.554,-28.03 -62.554,-62.554l0,-386.892c0,-34.524 28.029,-62.554 62.554,-62.554l386.892,0Zm-20.967,175.63c-4.139,-15.489 -16.337,-27.687 -31.826,-31.826c-28.078,-7.524 -140.653,-7.524 -140.653,-7.524c0,0 -112.575,0 -140.653,7.524c-15.486,4.139 -27.686,16.337 -31.826,31.826c-7.521,28.075 -7.521,86.652 -7.521,86.652c0,0 0,58.576 7.521,86.648c4.14,15.489 16.34,27.69 31.826,31.829c28.078,7.521 140.653,7.521 140.653,7.521c0,0 112.575,0 140.653,-7.521c15.489,-4.139 27.687,-16.34 31.826,-31.829c7.521,-28.072 7.521,-86.648 7.521,-86.648c0,0 0,-58.577 -7.521,-86.652Zm-208.481,140.653l0,-108.002l93.53,54.001l-93.53,54.001Z"
     id="path2639"
     style="fill:#d1d1d1;fill-opacity:1" /></svg>
