<svg xmlns="http://www.w3.org/2000/svg" viewBox="0 0 1000 1000">
    <g fill="#61dafb">
        <circle cx="499.9" cy="499" r="96.52"/>
        <path d="M849.79,218.84a30.15,30.15,0,0,0-33.35-26.59l-112,12.63,56.33-97.56a30.16,30.16,0,0,0-52.25-30.16l-55.87,96.78L608.19,72a30.17,30.17,0,0,0-55.3,24.12l62.27,142.75L544.53,361.2a143.79,143.79,0,0,1,52.23,30.19L667,269.81,823.2,252.19A30.16,30.16,0,0,0,849.79,218.84Z"/>
        <path d="M969.84,468.23H858.08l66-89.46a30.17,30.17,0,0,0-48.54-35.83L783.1,468.23H641.41a146.53,146.53,0,0,1,.26,60.33H782.21l93.38,126.5a30.17,30.17,0,0,0,48.54-35.83l-66.94-90.67H969.84a30.17,30.17,0,0,0,0-60.33Z"/>
        <path d="M823.2,745.81,668.44,728.35,597.67,605.77a143.66,143.66,0,0,1-52,30.65l70,121.33L552.89,901.87A30.17,30.17,0,1,0,608.19,926l45.06-103.31,56.32,97.56a30.16,30.16,0,1,0,52.24-30.17l-55.88-96.78,110.51,12.46a30.16,30.16,0,0,0,6.76-59.94Z"/>
        <path d="M385.85,759.12l70.43-122a143.77,143.77,0,0,1-52.45-29.8L334.05,728.19,177.8,745.81a30.16,30.16,0,1,0,6.76,59.94l112-12.63-56.33,97.56a30.16,30.16,0,0,0,52.25,30.16l55.87-96.78L392.81,926a30.17,30.17,0,1,0,55.3-24.12Z"/>
        <path d="M355.11,499a145.83,145.83,0,0,1,3-29.56H218.79l-93.38-126.5a30.17,30.17,0,0,0-48.54,35.83l66.94,90.67H31.16a30.17,30.17,0,0,0,0,60.33H142.92l-66,89.46a30.17,30.17,0,0,0,48.54,35.83L217.9,529.77H358.38A146.3,146.3,0,0,1,355.11,499Z"/>
        <path d="M455.1,361.25l-69.85-121L448.11,96.13A30.17,30.17,0,1,0,392.81,72L347.75,175.32,291.43,77.76a30.16,30.16,0,1,0-52.24,30.17l55.87,96.78-110.5-12.46a30.16,30.16,0,0,0-6.76,59.94l154.76,17.46L402.91,391.5A143.92,143.92,0,0,1,455.1,361.25Z"/>
    </g>
</svg>